<svg width="500" height="367" viewBox="0 0 500 367" fill="none" xmlns="http://www.w3.org/2000/svg">
<path d="M346.786 98.0655C346.786 98.0655 351.318 88.53 355.612 85.5079C359.908 82.484 366.508 84.2997 371.55 82.3227C371.55 82.3227 371.007 86.2156 365.548 86.895C360.089 87.5744 362.636 90.6782 362.636 90.6782C362.636 90.6782 374.988 91.8386 376.933 90.7212C378.878 89.6039 385.953 83.7377 391.133 85.0564C396.312 86.375 390.648 88.5261 390.648 88.5261C390.648 88.5261 386.49 94.8268 385.66 96.5039C384.831 98.181 378.886 102.343 378.886 102.343C378.886 102.343 365.731 105.721 354.304 107.067L346.786 98.0655Z" fill="#FFD8A4"/>
<path d="M224.829 344.511C224.829 344.511 254.459 226.518 236.171 213.205C228.626 207.711 207.216 202.867 184.668 199.07V241.344C195.264 242.245 203.035 243.737 204.819 246.121C211.841 255.506 204.819 364.12 204.819 364.12L261.259 363.132C263.173 354.875 224.829 344.511 224.829 344.511Z" fill="#231F20"/>
<path d="M218.339 192.645C218.339 192.645 318.077 202.153 336.365 215.466C354.653 228.779 325.023 346.772 325.023 346.772C325.023 346.772 363.365 357.136 361.453 365.396L305.013 366.384C305.013 366.384 312.035 257.772 305.013 248.387C297.992 239.002 198.227 243.418 198.227 243.418L218.339 192.645Z" fill="#404041"/>
<path d="M136.383 126.541C136.383 126.541 137.121 132.674 138.006 133.264L137.196 135.427C137.196 135.427 135.647 134.887 135.055 136.067C134.465 137.247 132.99 141.821 135.055 141.969C135.055 141.969 135.468 145.51 135.999 145.954C136.531 146.396 141.547 145.016 141.547 145.016C141.547 145.016 140.662 147.43 142.581 146.988C144.498 146.546 148.925 141.676 149.369 139.906C149.813 138.137 145.39 125.657 145.39 125.657L136.383 126.541Z" fill="#EABC86"/>
<path d="M139.77 128.164C139.77 128.164 145.082 136.511 148.623 138.135C148.623 138.135 146.851 141.698 148.623 143.741C148.623 143.741 150.688 139.61 150.836 138.428C150.984 137.249 151.722 128.689 148.475 127.51C145.228 126.328 139.77 128.164 139.77 128.164Z" fill="#FFD8A4"/>
<path d="M204.542 78.4579L160.877 72.7161C160.877 72.7161 88.2791 91.0606 83.5586 105.226C78.8359 119.392 89.8547 125.628 102.053 125.265C114.251 124.9 208.343 105.281 208.343 105.281L204.542 78.4579Z" fill="#2D526B"/>
<path d="M338.607 107.725C345.84 97.8935 345.348 97.0293 350.29 98.6199C355.234 100.213 357.836 104.547 355.971 107.851C354.106 111.156 351.852 116.725 351.852 116.725L338.607 107.725Z" fill="#2D526B"/>
<path d="M191.235 56.5975C191.235 56.5975 199.167 81.4298 211.472 95.4601L216.267 83.8182L211.878 68.0852L191.235 56.5975Z" fill="#EABC86"/>
<path d="M215.615 11.4116C231.606 19.8377 226.753 33.2449 232.884 39.6119C234.71 41.5084 244.192 38.2093 241.477 43.3112C240.825 44.5387 237.859 47.5316 237.859 47.5316C237.859 47.5316 243.482 72.3681 221.682 72.8641C207.8 73.1788 198.717 62.9958 198.717 62.9958C198.717 62.9958 173.908 60.2614 168.358 44.9514C161.121 24.9939 186.752 -3.79625 215.615 11.4116Z" fill="#FFD8A4"/>
<path d="M220.096 39.9098C219.819 41.8209 221.763 43.5571 226.161 43.3549C226.161 43.3549 223.091 37.684 223.662 36.4648C223.662 36.4648 220.442 37.5422 220.096 39.9098Z" fill="white"/>
<path d="M223.979 40.2496C223.979 40.2496 225.646 43.5425 226.161 43.3571C226.676 43.1695 226.534 41.4772 225.844 39.5744C225.154 37.6716 224.177 36.2794 223.662 36.4669C223.147 36.6503 223.979 40.2496 223.979 40.2496Z" fill="#404041"/>
<path d="M225.865 29.3516C225.979 31.7776 217.837 31.565 217.837 31.565C217.914 28.1554 225.727 26.413 225.865 29.3516Z" fill="#754C28"/>
<path d="M237.411 52.298C237.411 52.298 235.639 54.5613 229.345 53.7735C229.345 53.7735 232.394 56.0744 237.019 53.9403L237.411 52.298Z" fill="#754C28"/>
<path d="M171.109 17.8682C171.109 17.8682 175.437 4.49019 195.701 0.949266C215.965 -2.59166 225.606 4.4902 229.343 10.3924C233.082 16.2947 221.788 24.1643 221.788 24.1643V20.0336L208.341 27.1154L209.867 23.3765C209.867 23.3765 203.736 25.9337 203.752 32.4258C203.769 38.9178 200.607 43.3695 200.607 43.3695C200.607 43.3695 196.608 38.9178 191.237 39.1138C185.866 39.3097 188.622 50.3284 193.736 52.2958C198.85 54.2632 193.867 63.8523 193.867 63.8523C193.867 63.8523 172.607 59.6632 167.165 48.6903C161.722 37.7174 168.751 25.1459 168.751 25.1459C168.751 25.1459 163.637 26.4568 161.472 29.8352C161.472 29.8352 161.276 21.5612 169.145 22.174C169.145 22.174 165.998 17.0804 169.539 10.9801C169.535 10.9822 169.731 14.7212 171.109 17.8682Z" fill="#754C28"/>
<path d="M160.878 72.7176C160.878 72.7176 219.9 76.3544 233.378 77.607C246.854 78.8595 298.007 97.7479 298.007 97.7479C298.007 97.7479 336.545 99.0317 342.839 97.7479C349.135 96.4641 353.513 107.682 354.301 113.585C355.089 119.487 323.189 122.263 310.205 128.045C297.221 133.826 249.215 123.756 249.215 123.756C249.215 123.756 268.889 205.168 263.775 226.024C258.658 246.877 178.782 247.665 173.274 240.189C167.764 232.714 143.171 95.4783 160.878 72.7176Z" fill="#476E8E"/>
<path d="M226.471 77.0448C226.471 77.0448 207.506 69.0209 186.652 67.0535C165.796 65.086 163.437 91.4503 173.668 101.287C183.897 111.124 226.471 77.0448 226.471 77.0448Z" fill="#CFD1D2"/>
<path d="M229.343 85.0332C229.343 85.0332 228.753 110.416 249.213 123.756C249.213 123.756 233.868 103.405 229.343 85.0332Z" fill="#2D526B"/>
<path d="M298.007 97.7463C298.007 97.7463 306.27 101.544 307.45 107.713C307.45 107.713 308.238 96.9585 298.007 97.7463Z" fill="#2D526B"/>
<path d="M302.517 326.846C302.517 326.846 320.357 327.527 324.221 330.682C328.085 333.838 327.878 340.78 327.878 340.78C327.878 340.78 330.848 333.992 333.503 333.813C336.159 333.634 331.261 345.734 331.261 345.734C331.261 345.734 348.553 353.408 352.98 353.408C357.406 353.408 364.084 358.032 362.031 367.29H302.517C302.517 367.29 299.566 355.179 302.517 345.144C302.517 345.144 297.884 328.915 302.517 326.846Z" fill="#603813"/>
<path d="M202.322 324.582C202.322 324.582 220.163 325.264 224.026 328.419C227.89 331.575 227.684 338.517 227.684 338.517C227.684 338.517 230.654 331.729 233.309 331.549C235.964 331.37 231.067 343.471 231.067 343.471C231.067 343.471 248.359 351.144 252.785 351.144C257.212 351.144 263.89 355.769 261.837 365.027H202.322C202.322 365.027 199.371 352.916 202.322 342.881C202.322 342.881 197.689 326.652 202.322 324.582Z" fill="#3B2314"/>
<path d="M427.343 367.288H415.966V238.583H429.344V365.287C429.344 366.392 428.448 367.288 427.343 367.288Z" fill="#351D09"/>
<path d="M420.226 367.288H408.849C407.744 367.288 406.848 366.392 406.848 365.287V238.583H420.226V367.288Z" fill="#19100B"/>
<path d="M486.403 367.288H475.026V238.583H488.404V365.287C488.404 366.392 487.508 367.288 486.403 367.288Z" fill="#351D09"/>
<path d="M479.286 367.288H467.909C466.804 367.288 465.908 366.392 465.908 365.287V238.583H479.286V367.288Z" fill="#19100B"/>
<path d="M414.711 130.265H3.45138C2.22175 130.265 1.10465 129.269 0.956679 128.039L0.0167426 120.313C-0.133314 119.084 0.742013 118.089 1.97165 118.089H413.232C414.459 118.089 415.578 119.086 415.726 120.313L416.666 128.039C416.814 129.269 415.939 130.265 414.711 130.265Z" fill="#351D09"/>
<path d="M417.49 153.088H6.22946C4.99983 153.088 3.88273 152.092 3.73476 150.865L2.79482 143.139C2.64476 141.911 3.52009 140.915 4.74973 140.915H416.01C417.237 140.915 418.357 141.911 418.504 143.139L419.444 150.865C419.592 152.092 418.717 153.088 417.49 153.088Z" fill="#351D09"/>
<path d="M420.266 175.909H9.00778C7.77815 175.909 6.66105 174.913 6.51308 173.684L5.57314 165.958C5.42308 164.73 6.29841 163.734 7.52805 163.734H418.786C420.016 163.734 421.133 164.73 421.281 165.958L422.221 173.684C422.369 174.913 421.495 175.909 420.266 175.909Z" fill="#351D09"/>
<path d="M423.044 198.733H11.7838C10.5541 198.733 9.43705 197.737 9.28908 196.509L8.34914 188.783C8.19908 187.553 9.07441 186.559 10.304 186.559H421.564C422.792 186.559 423.911 187.556 424.059 188.783L424.999 196.509C425.147 197.737 424.271 198.733 423.044 198.733Z" fill="#351D09"/>
<path d="M425.822 221.554H14.562C13.3344 221.554 12.2173 220.557 12.0673 219.33L11.1273 211.604C10.9773 210.374 11.8526 209.38 13.0822 209.38H424.342C425.57 209.38 426.689 210.376 426.837 211.604L427.777 219.33C427.925 220.557 427.05 221.554 425.822 221.554Z" fill="#351D09"/>
<path d="M47.4429 233.11H34.6255C33.6397 233.11 32.729 232.308 32.5935 231.32L16.5624 115.603C16.4249 114.613 17.1126 113.813 18.0984 113.813H30.9179C31.9037 113.813 32.8144 114.615 32.9499 115.603L48.981 231.318C49.1185 232.308 48.4287 233.11 47.4429 233.11Z" fill="#19100B"/>
<path d="M495.334 248.385H88.3564C85.7804 248.385 83.6901 246.296 83.6901 243.718V233.446C83.6901 230.868 85.7784 228.779 88.3564 228.779H495.334C497.91 228.779 500 230.868 500 233.446V243.718C500 246.296 497.912 248.385 495.334 248.385Z" fill="#19100B"/>
<path d="M415.976 233.11H403.159C402.173 233.11 401.262 232.308 401.127 231.32L385.096 115.603C384.958 114.613 385.646 113.813 386.634 113.813H399.451C400.437 113.813 401.348 114.615 401.485 115.603L417.516 231.318C417.65 232.308 416.962 233.11 415.976 233.11Z" fill="#19100B"/>
<path d="M427.958 248.385H20.9809C18.405 248.385 16.3146 246.296 16.3146 243.718V233.446C16.3146 230.868 18.4029 228.779 20.9809 228.779H427.958C430.534 228.779 432.624 230.868 432.624 233.446V243.718C432.624 246.296 430.534 248.385 427.958 248.385Z" fill="#44240C"/>
<path d="M49.3604 367.288H37.9811V238.583H51.3611V365.287C51.3611 366.392 50.465 367.288 49.3604 367.288Z" fill="#351D09"/>
<path d="M42.243 367.288H30.8657C29.7612 367.288 28.865 366.392 28.865 365.287V238.583H42.243V367.288Z" fill="#19100B"/>
<path d="M108.42 367.288H97.043V238.583H110.421V365.287C110.421 366.392 109.525 367.288 108.42 367.288Z" fill="#351D09"/>
<path d="M101.303 367.288H89.9257C88.8211 367.288 87.9249 366.392 87.9249 365.287V238.583H101.303V367.288Z" fill="#19100B"/>
</svg>
